<?xml version="1.0" standalone="no"?>
<!DOCTYPE svg PUBLIC "-//W3C//DTD SVG 20010904//EN"
 "http://www.w3.org/TR/2001/REC-SVG-20010904/DTD/svg10.dtd">
<svg version="1.0" xmlns="http://www.w3.org/2000/svg"
 width="822.000000pt" height="804.000000pt" viewBox="0 0 822.000000 804.000000"
 preserveAspectRatio="xMidYMid meet">

<g transform="translate(0.000000,804.000000) scale(0.100000,-0.100000)"
fill="#000000" stroke="none">
<path d="M3268 7705 c-1 -2 -57 -5 -123 -8 -123 -5 -213 -19 -370 -57 -27 -7
-59 -16 -70 -21 -11 -5 -47 -18 -80 -30 -33 -11 -74 -27 -92 -35 -17 -8 -34
-14 -38 -14 -33 0 -242 -118 -295 -166 -14 -12 -59 -40 -100 -62 -135 -70
-174 -94 -215 -132 -22 -21 -60 -50 -85 -65 -25 -15 -48 -33 -52 -40 -4 -7
-40 -39 -80 -71 -75 -60 -178 -160 -178 -174 0 -4 -9 -10 -20 -13 -11 -3 -28
-19 -37 -36 -10 -17 -26 -31 -35 -31 -10 0 -18 -3 -18 -7 0 -5 -12 -21 -26
-38 -22 -26 -23 -30 -8 -35 12 -5 14 -9 6 -14 -7 -4 -17 -4 -23 -1 -6 4 -13
-2 -16 -14 -3 -11 -14 -23 -24 -26 -21 -7 -26 -24 -6 -26 6 -1 1 -4 -13 -8
-15 -4 -26 -15 -28 -28 -2 -11 -13 -23 -24 -26 -16 -5 -19 -9 -10 -19 6 -8 7
-19 3 -27 -6 -10 -10 -10 -16 -1 -10 17 -38 -26 -32 -50 3 -13 1 -17 -10 -13
-9 4 -16 -2 -20 -16 -3 -11 -9 -21 -14 -21 -5 0 -9 -7 -9 -15 0 -7 -7 -18 -16
-23 -9 -5 -15 -12 -15 -15 3 -20 -2 -29 -34 -67 -19 -23 -35 -46 -35 -51 0 -8
-44 -78 -101 -161 -11 -15 -19 -36 -19 -48 0 -11 -4 -20 -10 -20 -5 0 -10 -13
-10 -30 0 -16 -4 -30 -9 -30 -5 0 -12 -17 -16 -37 -7 -42 -30 -120 -98 -348
-57 -187 -84 -294 -92 -365 -3 -30 -8 -62 -10 -70 -21 -77 -35 -522 -21 -655
12 -108 14 -124 30 -215 8 -47 20 -114 26 -150 27 -153 85 -375 111 -426 6
-11 9 -24 8 -30 -4 -16 50 -204 61 -214 3 -3 16 -27 27 -55 42 -99 195 -389
224 -427 17 -21 27 -38 23 -38 -3 0 13 -21 37 -47 25 -27 53 -60 64 -74 11
-14 30 -31 41 -37 37 -20 35 -46 -7 -97 -22 -26 -39 -50 -39 -54 0 -15 -136
-144 -164 -156 -17 -7 -72 -13 -123 -14 -51 0 -118 -8 -150 -16 -114 -28 -148
-38 -159 -47 -6 -4 -31 -19 -55 -31 -28 -15 -45 -31 -47 -46 -2 -12 -14 -33
-28 -48 -14 -15 -24 -38 -24 -56 0 -37 52 -145 96 -197 12 -14 49 -78 82 -143
34 -65 74 -134 89 -154 29 -38 93 -83 118 -83 27 0 67 -48 64 -78 -6 -74 16
-110 108 -182 13 -10 203 -43 210 -36 3 2 28 -2 55 -11 93 -27 158 9 143 79
-6 25 -4 29 10 26 11 -2 28 -28 44 -68 37 -91 40 -94 98 -124 28 -14 55 -30
58 -36 11 -18 -46 -121 -95 -171 -25 -26 -66 -60 -92 -77 -26 -16 -45 -31 -43
-34 11 -11 -83 -96 -125 -113 -25 -10 -52 -25 -61 -32 -8 -7 -19 -13 -24 -13
-16 0 -75 -51 -75 -66 0 -7 -4 -14 -10 -14 -5 0 -13 -17 -19 -37 -22 -89 -22
-93 -6 -93 12 0 15 -6 10 -20 -4 -13 1 -27 18 -42 44 -42 72 -63 82 -60 5 2
15 -5 22 -14 7 -10 13 -14 13 -10 0 4 7 0 16 -8 8 -9 23 -16 31 -16 14 0 12 4
-5 23 -12 13 -22 26 -22 30 0 11 53 -16 87 -44 36 -31 77 -46 148 -53 28 -3
66 -10 85 -16 23 -7 36 -7 38 0 2 5 10 10 18 10 32 0 10 21 -53 52 -38 18 -93
54 -124 81 -49 43 -56 53 -50 75 6 22 16 27 67 38 32 7 79 19 104 28 25 8 90
26 145 39 55 13 134 39 175 56 41 18 111 48 155 67 58 25 114 62 205 135 69
55 135 105 147 111 11 6 70 62 130 126 59 64 140 149 180 190 65 66 163 199
163 219 0 5 12 31 26 58 30 57 76 103 113 112 14 3 31 9 36 13 6 4 26 11 45
15 19 4 46 16 60 26 25 18 96 44 135 51 12 1 41 -6 64 -17 l44 -19 26 31 c57
67 149 91 251 63 64 -17 97 -36 154 -89 33 -30 62 -48 81 -49 17 -2 64 -19
105 -39 41 -20 85 -40 97 -46 12 -5 59 -47 105 -93 46 -46 99 -94 118 -106
159 -99 287 -133 540 -142 52 -2 124 -11 160 -19 105 -25 126 -29 215 -31 48
-2 82 1 79 6 -3 5 6 6 20 2 16 -4 26 -2 26 5 0 6 17 11 39 11 43 0 99 16 121
36 9 7 29 12 45 11 21 -1 29 2 27 12 -2 9 4 12 18 8 14 -3 29 2 41 14 20 20
49 26 49 9 0 -5 7 -10 15 -10 8 0 15 -6 15 -14 0 -8 7 -22 15 -30 13 -12 14
-20 4 -37 -8 -15 -8 -19 0 -14 6 3 2 -9 -9 -27 -11 -18 -25 -44 -30 -58 -6
-14 -27 -40 -46 -58 -56 -51 -96 -65 -215 -71 -41 -2 -90 -80 -68 -107 6 -8 9
-20 6 -29 -9 -22 11 -28 22 -6 7 12 18 17 29 14 11 -2 26 3 35 11 8 9 20 16
26 16 6 0 11 7 11 15 0 11 5 12 25 5 19 -7 27 -6 34 8 6 9 11 14 11 10 0 -12
76 31 104 59 14 14 26 32 26 39 0 40 145 144 202 144 23 0 68 89 68 134 0 48
-38 115 -81 142 -21 13 -44 24 -51 24 -13 0 -73 71 -143 170 -53 74 -170 215
-223 269 -61 60 -79 120 -84 265 -3 131 -5 128 73 100 24 -8 68 -17 96 -19 29
-2 58 -7 64 -11 7 -4 17 -1 23 7 14 18 46 21 39 4 -5 -14 30 -38 41 -28 3 3 6
1 6 -6 0 -7 6 -11 12 -9 7 3 19 -1 26 -9 7 -7 22 -13 33 -13 28 0 57 -34 65
-75 3 -20 15 -40 25 -46 11 -5 17 -14 15 -18 -7 -11 59 -41 90 -41 13 0 35 6
47 14 12 8 36 17 52 20 17 3 48 10 70 16 22 6 49 13 60 15 11 3 44 16 73 30
28 14 56 25 61 25 19 0 58 65 59 97 1 47 18 71 54 78 36 7 75 23 98 41 24 18
62 24 82 13 27 -14 35 -3 15 19 -10 10 -17 26 -17 36 0 18 -39 38 -55 28 -5
-4 -27 -7 -47 -8 -20 0 -44 -8 -53 -18 -9 -9 -24 -16 -33 -16 -10 0 -27 -7
-39 -15 -12 -8 -33 -16 -47 -17 -17 -2 -25 -7 -22 -15 3 -7 0 -15 -6 -19 -6
-4 -8 -27 -5 -61 7 -68 3 -79 -37 -97 -42 -20 -107 -36 -117 -30 -4 2 -38 -3
-74 -12 -97 -24 -132 -12 -192 69 -25 34 -49 61 -54 60 -5 -2 -9 3 -9 10 0 8
-4 7 -10 -3 -8 -13 -10 -12 -10 4 0 12 -5 16 -15 12 -8 -3 -15 -1 -15 5 0 6
-4 8 -9 4 -12 -7 -63 15 -74 32 -5 7 -27 13 -52 13 -25 0 -45 4 -45 10 0 9
-29 16 -100 24 -44 6 -70 16 -70 27 0 5 3 9 8 10 4 0 32 2 62 4 30 1 82 10
115 20 33 9 77 21 98 26 22 5 55 18 75 28 21 10 64 26 97 36 33 9 67 23 76 31
9 8 26 16 38 17 11 1 21 5 21 9 0 4 6 8 14 8 16 0 171 81 197 104 11 9 22 16
25 16 9 0 166 120 184 140 8 9 38 31 67 49 28 18 57 39 65 48 14 18 92 69 95
62 1 -2 12 5 25 17 13 12 42 32 66 46 23 14 62 40 85 59 60 48 247 237 247
250 0 11 28 52 81 119 40 52 119 177 119 190 0 16 47 60 63 60 31 0 44 -41 42
-125 -2 -73 -13 -113 -44 -165 -5 -8 -27 -53 -49 -100 -41 -86 -53 -135 -39
-158 5 -6 5 -12 2 -12 -4 0 4 -14 16 -32 32 -45 36 -118 10 -202 -27 -88 -27
-88 11 -68 50 27 105 81 118 115 6 18 16 40 21 49 14 27 11 58 -13 125 -20 59
-21 64 -6 100 37 88 48 143 44 213 -4 51 0 85 14 127 10 32 23 81 29 108 5 28
17 77 25 110 9 33 19 107 22 165 6 104 6 105 -22 142 -35 44 -83 58 -119 34
-14 -9 -33 -16 -45 -16 -11 0 -20 -4 -20 -8 0 -10 -15 -18 -204 -107 -185 -87
-214 -96 -326 -102 -52 -2 -108 -9 -125 -14 -16 -5 -57 -11 -90 -14 -33 -3
-67 -7 -75 -10 -16 -4 -110 -15 -175 -20 -104 -8 -174 -6 -212 5 -35 11 -43
18 -43 37 0 13 7 26 15 29 8 4 15 11 15 17 0 5 16 34 35 63 21 31 33 59 29 68
-4 10 5 31 21 52 26 35 31 48 34 102 1 15 5 21 13 16 6 -4 8 -3 4 4 -3 6 18
62 48 124 44 93 76 170 81 198 1 3 8 30 17 60 42 149 63 363 47 470 -22 148
-22 144 0 189 12 23 27 41 34 38 21 -7 72 -91 90 -147 53 -164 64 -282 37
-400 -18 -79 0 -156 57 -240 43 -64 34 -92 -58 -181 l-80 -78 2 -63 c1 -35 -1
-107 -4 -162 -3 -60 -1 -107 5 -122 11 -23 64 -52 75 -40 3 3 1 6 -5 6 -7 0
-12 5 -12 10 0 6 6 10 14 10 23 0 66 40 60 55 -4 8 1 18 10 21 9 3 16 14 16
24 0 11 5 22 10 25 6 3 10 14 10 24 0 10 6 24 14 30 7 6 14 30 14 52 1 33 9
51 39 88 51 61 66 100 66 174 0 69 -11 124 -36 177 -9 20 -19 72 -22 120 -10
157 -26 279 -46 352 -14 53 -19 65 -59 153 -70 152 -85 177 -131 220 -40 38
-55 45 -87 45 -37 0 -48 -8 -178 -135 -77 -74 -143 -133 -149 -132 -9 3 -28
83 -39 167 -7 48 -23 135 -36 195 -6 28 -11 60 -11 73 1 12 -4 22 -9 22 -6 0
-9 3 -8 8 2 8 -16 75 -36 137 -8 22 -23 71 -35 108 -32 99 -122 294 -163 355
-20 29 -45 70 -54 92 -10 22 -21 40 -26 40 -4 0 -8 6 -8 12 0 45 -340 447
-391 463 -10 4 -19 12 -19 20 0 8 -9 17 -21 20 -11 4 -18 9 -16 12 17 17 -321
293 -433 354 -24 13 -50 30 -58 37 -13 12 -101 56 -247 122 -211 97 -533 170
-752 170 -54 0 -120 2 -148 4 -27 2 -108 7 -180 10 -71 4 -158 8 -192 10 -33
3 -63 3 -65 1z m1000 -2391 c59 -29 129 -107 138 -152 8 -38 -17 -76 -69 -106
-19 -12 -60 -36 -91 -53 -30 -18 -60 -42 -66 -53 -6 -11 -22 -26 -36 -33 -22
-12 -33 -12 -65 0 -68 23 -79 34 -79 78 0 22 -5 57 -11 78 -8 30 -7 53 6 105
19 76 49 115 110 143 55 26 102 24 163 -7z m-1783 -569 c29 -13 62 -39 80 -61
16 -22 53 -64 83 -94 47 -48 54 -60 54 -95 0 -72 -4 -78 -98 -127 -49 -27
-106 -57 -127 -68 -33 -18 -43 -19 -80 -9 -81 21 -120 55 -135 117 -10 37 -9
241 1 275 4 16 22 42 39 58 27 24 40 28 82 28 30 -1 72 -11 101 -24z m4962
-707 c-3 -8 -6 -5 -6 6 -1 11 2 17 5 13 3 -3 4 -12 1 -19z m-2029 -1604 c27
-8 28 -15 5 -40 -17 -18 -73 -22 -73 -6 1 46 20 59 68 46z m339 -89 c0 -8 -4
-12 -9 -9 -4 3 -8 9 -8 15 0 5 4 9 8 9 5 0 9 -7 9 -15z m41 -76 c-12 -7 -24
-7 -35 0 -15 9 -12 10 17 10 29 0 32 -1 18 -10z m567 -89 c3 -5 1 -10 -4 -10
-6 0 -11 5 -11 10 0 6 2 10 4 10 3 0 8 -4 11 -10z m-5541 -117 c14 -27 31 -55
36 -63 6 -8 14 -27 19 -41 8 -22 23 -31 77 -49 38 -12 80 -28 96 -36 98 -51
297 -104 388 -104 150 0 252 -32 295 -92 85 -119 101 -176 72 -258 -11 -30
-19 -68 -18 -83 2 -34 -15 -67 -34 -67 -7 0 -15 -5 -17 -11 -2 -5 -11 -11 -20
-12 -9 -2 -23 -9 -32 -16 -21 -17 -58 -1 -75 33 -6 11 -20 32 -31 46 -12 14
-23 48 -27 77 -5 47 -10 55 -40 73 -20 11 -43 18 -53 15 -10 -3 -21 -1 -25 5
-14 23 -60 10 -93 -27 l-33 -37 -67 17 c-37 9 -76 17 -86 17 -11 0 -43 8 -72
17 -43 13 -55 22 -64 46 -5 17 -8 32 -6 35 9 8 -48 88 -88 122 -75 65 -95 93
-167 237 -39 79 -75 145 -80 149 -5 3 -9 14 -9 24 0 14 9 20 38 23 90 9 87 10
116 -40z"/>
<path d="M4176 5155 c-4 -10 1 -15 14 -15 11 0 20 7 20 15 0 8 -6 15 -14 15
-8 0 -16 -7 -20 -15z"/>
<path d="M7123 2854 c-13 -14 -23 -29 -23 -33 0 -3 -14 -12 -31 -18 -24 -10
-30 -16 -24 -30 14 -38 26 -140 20 -178 -9 -60 -26 -91 -60 -111 -23 -14 -26
-19 -13 -22 10 -2 15 -9 12 -17 -3 -8 -12 -11 -19 -9 -7 3 -18 -4 -25 -15 -13
-25 -2 -27 26 -6 10 8 25 15 33 15 13 0 67 50 54 50 -4 0 2 6 12 14 11 8 23
12 27 10 5 -3 8 -1 8 5 0 5 -6 12 -12 14 -8 3 -6 6 4 6 14 1 17 9 13 44 -2 24
-12 60 -20 81 -20 47 -14 78 19 96 14 7 23 17 20 22 -3 4 2 8 10 8 9 0 16 7
16 15 0 8 9 15 19 15 31 0 30 33 -1 53 -36 22 -39 22 -65 -9z"/>
<path d="M6894 2380 c-5 -5 -34 -14 -64 -19 -48 -7 -45 -13 5 -13 43 0 55 4
65 22 12 22 10 26 -6 10z"/>
<path d="M3591 1569 c-17 -23 -33 -60 -37 -86 -9 -59 1 -176 15 -181 6 -2 11
-10 11 -18 0 -8 4 -14 9 -14 32 0 13 -195 -20 -205 -9 -3 -19 -14 -22 -25 -4
-16 -11 -19 -36 -14 -17 4 -38 3 -48 -1 -16 -7 -15 -9 7 -15 14 -3 37 -3 52 1
23 6 27 4 30 -14 3 -22 48 -39 48 -18 0 6 11 11 24 11 33 0 100 78 121 139 25
75 15 168 -24 226 -49 73 -63 105 -57 131 6 22 10 23 54 17 26 -3 55 -13 65
-21 9 -8 17 -11 17 -5 0 14 -46 63 -59 63 -6 0 -35 16 -66 35 l-55 35 -29 -41z"/>
<path d="M3815 1460 c4 -8 21 -31 37 -51 15 -20 28 -42 28 -48 0 -6 5 -11 10
-11 6 0 10 -6 10 -14 0 -8 14 -30 30 -48 17 -18 30 -38 30 -45 0 -6 9 -15 20
-18 11 -3 20 -11 20 -16 0 -5 7 -9 15 -9 8 0 15 -4 15 -10 0 -5 9 -10 19 -10
11 0 21 -6 24 -12 2 -7 3 -5 2 5 -2 11 3 17 16 17 54 0 -36 98 -106 116 -14 3
-60 43 -102 88 -42 44 -73 74 -68 66z"/>
<path d="M4160 1130 c0 -11 5 -20 10 -20 6 0 10 9 10 20 0 11 -4 20 -10 20 -5
0 -10 -9 -10 -20z"/>
<path d="M4160 1080 c0 -34 52 -121 83 -141 51 -31 102 -34 137 -9 37 26 35
33 -6 21 -16 -4 -44 -4 -62 1 -41 11 -108 79 -117 119 -7 33 -35 40 -35 9z"/>
<path d="M3236 1051 c-28 -29 -28 -29 -8 -47 24 -22 47 -104 39 -136 -4 -12
-1 -28 5 -35 14 -17 2 -63 -17 -63 -18 0 -45 -50 -45 -84 0 -29 -58 -81 -99
-89 -14 -3 -45 -12 -68 -21 -23 -9 -60 -19 -82 -22 -37 -6 -44 -3 -70 25 -34
36 -46 39 -38 11 4 -15 0 -20 -15 -20 -10 0 -16 5 -13 10 3 6 -1 10 -9 10 -9
0 -16 -4 -16 -9 0 -5 -15 -8 -32 -7 -21 0 -32 -3 -31 -11 1 -6 -10 -17 -25
-24 l-28 -12 17 -49 c20 -59 25 -65 33 -40 4 11 19 25 35 32 35 14 57 56 40
76 -7 8 -8 18 -4 22 4 4 10 1 12 -6 3 -6 9 -10 14 -6 5 3 9 0 9 -6 0 -6 5 -8
10 -5 6 4 17 1 25 -5 8 -6 19 -9 25 -5 5 3 13 -1 16 -10 17 -43 145 -72 178
-40 8 8 19 15 25 15 5 0 19 12 31 28 12 15 48 55 81 90 33 34 57 62 54 62 -8
0 28 54 42 63 8 5 10 19 6 37 -3 17 -1 30 4 30 11 0 13 15 13 91 l0 56 45 9
c26 5 47 13 48 18 2 10 -3 13 -98 58 -38 18 -72 34 -75 36 -3 1 -18 -11 -34
-27z"/>
<path d="M4706 874 c6 -2 9 -17 6 -33 -2 -16 2 -34 11 -43 8 -8 17 -23 19 -34
5 -29 74 -57 146 -60 34 -1 60 1 58 5 -3 4 8 12 25 18 16 6 29 7 29 2 0 -5 9
-4 20 3 21 14 28 48 9 48 -8 0 -7 5 1 15 10 12 2 11 -34 -5 -26 -11 -68 -20
-94 -20 -42 0 -49 4 -92 50 -31 34 -52 49 -62 45 -9 -4 -19 -2 -23 4 -3 6 -12
11 -18 10 -8 0 -8 -2 -1 -5z"/>
<path d="M2217 358 c-40 -37 -31 -73 29 -114 27 -18 56 -33 64 -33 13 -1 13 1
1 8 -8 5 -16 16 -17 25 -4 26 -36 120 -44 129 -4 5 -19 -2 -33 -15z"/>
<path d="M2677 332 c-30 -31 -35 -52 -12 -52 16 0 55 34 55 48 0 4 -4 13 -8
20 -6 9 -15 5 -35 -16z"/>
<path d="M2460 241 c0 -6 -15 -24 -32 -40 -36 -34 -32 -37 24 -18 49 17 52 21
36 46 -13 22 -28 28 -28 12z"/>
</g>
</svg>
